<?xml version="1.0" encoding="utf-8"?>
<!-- Generator: Adobe Illustrator 22.1.0, SVG Export Plug-In . SVG Version: 6.00 Build 0)  -->
<svg version="1.1" id="Layer_1" xmlns="http://www.w3.org/2000/svg" xmlns:xlink="http://www.w3.org/1999/xlink" x="0px" y="0px"
	 viewBox="0 0 360 360" style="enable-background:new 0 0 360 360;" xml:space="preserve">
<style type="text/css">
	.st0{fill:none;stroke:#000000;stroke-width:7;stroke-miterlimit:10;}
</style>
<g>
	<polygon points="127.8,192.5 127.7,192.1 163.7,99.9 161.9,92.2 95.4,107.5 97.9,118.2 147.9,106.6 148,107.1 111.8,199.6 
		113.5,207.1 177.7,192.3 175.2,181.6 	"/>
	<polygon points="225.2,170.2 225.2,169.8 187.9,178.4 180.3,145.7 220.7,136.4 218.2,125.7 165.2,137.9 175.2,181.6 182.9,179.8 
		185.4,190.5 177.7,192.3 187.9,236.5 200.6,233.5 190.3,188.9 226.8,180.5 224.5,170.3 	"/>
	<rect x="176.4" y="180.6" transform="matrix(0.9744 -0.225 0.225 0.9744 -37.2299 45.3311)" width="7.9" height="10.9"/>
	<path d="M225.2,169.8l2.3,10.1l-0.8,0.2l12.6,54.6c4.4,19.3-1.1,25.9-12.5,28.5c-4.2,1-8.2,1-11.1,0.6l0.5,10.8
		c3.5,0.6,9.5,0.3,14.1-0.8c17-3.9,28-14.9,21.9-41l-15.2-65.8L225.2,169.8z"/>
	<rect x="225.6" y="170.1" transform="matrix(0.9744 -0.225 0.225 0.9744 -33.6502 55.34)" width="0.8" height="10.4"/>
</g>
<circle class="st0" cx="180.5" cy="180.5" r="108"/>
</svg>
