<svg id="Layer_1" data-name="Layer 1" xmlns="http://www.w3.org/2000/svg" viewBox="0 0 223.05 223.05"><defs><style>.cls-1{fill:none;stroke:#000;stroke-miterlimit:10;stroke-width:7px;}</style></defs><title>personal-logo-1</title><polygon points="58.87 123.57 58.77 123.13 94.75 30.93 92.96 23.18 26.46 38.53 28.93 49.2 78.91 37.66 79.01 38.1 42.81 130.66 44.53 138.12 108.72 123.3 106.25 112.63 58.87 123.57"/><polygon points="156.26 101.19 156.18 100.84 118.91 109.44 111.35 76.71 151.69 67.39 149.23 56.73 96.17 68.97 106.25 112.63 113.97 110.85 116.43 121.52 108.72 123.3 118.92 167.48 131.63 164.54 121.34 119.97 157.85 111.54 155.5 101.37 156.26 101.19"/><rect x="176.36" y="180.57" width="7.92" height="10.95" transform="translate(-106.21 -23.64) rotate(-13)"/><path d="M225.16,169.82,227.5,180l-.76.18,12.61,54.6c4.44,19.25-1.1,25.91-12.5,28.54a31.26,31.26,0,0,1-11.11.57l.49,10.79a42.35,42.35,0,0,0,14.13-.81c16.95-3.91,28-14.9,21.94-41l-15.19-65.77Z" transform="translate(-68.98 -68.98)"/><rect x="225.64" y="170.12" width="0.78" height="10.44" transform="translate(-102.63 -13.64) rotate(-13)"/><circle class="cls-1" cx="111.52" cy="111.52" r="108"/></svg>