<svg id="Layer_1" data-name="Layer 1" xmlns="http://www.w3.org/2000/svg" viewBox="0 0 225.78 224.03"><defs><style>.cls-1{fill:#202020;}</style></defs><title>personal-logo-chinese-ver</title><path d="M255,233.16,238.52,167l-10.47,2.6h0l-1.44.36h0l-37.12,9.22-8.1-32.61,40.18-10L218.93,126,166.08,139.1l10.56,42.51h0l.24,1-47.19,11.73-.11-.44L164,101.08l-1.92-7.71L95.88,109.82l2.64,10.63,49.78-12.37.11.44-34.66,93.15,1.84,7.42,63.93-15.88.24.94h0l10.69,43.07,12.67-3.15-11-44.4,36.37-9L242,235.28c4.81,19.36-.61,26.16-12,29A30.77,30.77,0,0,1,219,265l.7,10.88a42,42,0,0,0,14.12-1C250.66,270.66,261.47,259.41,255,233.16Z" transform="translate(-68.86 -68.63)"/><path class="cls-1" d="M254,234.68c-.31-1.55-.4-1-.48-1.17C254.14,236.08,254.07,234.6,254,234.68Z" transform="translate(-68.86 -68.63)"/><path class="cls-1" d="M253.46,260.06l.13-.44a21.82,21.82,0,0,1-1.7,3.38A17.67,17.67,0,0,0,253.46,260.06Z" transform="translate(-68.86 -68.63)"/><path class="cls-1" d="M234.6,273.85a15.16,15.16,0,0,0,2.37-.54c.94-.35,2.07-.69,3.18-1.21a29.55,29.55,0,0,0,3.36-1.72,32.29,32.29,0,0,0,3-1.9l.63-.34,1.26-1.5a27.29,27.29,0,0,1-6.91,4.72l-1.88.87-1.84.67A26.61,26.61,0,0,1,234.6,273.85Z" transform="translate(-68.86 -68.63)"/><path class="cls-1" d="M221.79,274.55c.39.09-.32.08-.35.08a31.39,31.39,0,0,0,3.3,0c-.29,0-.37,0-.54,0C223.69,274.59,223,274.61,221.79,274.55Z" transform="translate(-68.86 -68.63)"/><path class="cls-1" d="M224.2,274.58c2.51-.08-1.65-.07,0,0Z" transform="translate(-68.86 -68.63)"/><path class="cls-1" d="M220.61,268.33l.34,3.42c0-.72-.14-3.78,0-2.65l-.17-1.88a.51.51,0,0,0,0-.13l0,0s0,0,0,0,0,0-.07.08Z" transform="translate(-68.86 -68.63)"/><path class="cls-1" d="M220.22,266.34l.1.7A1.45,1.45,0,0,0,220.22,266.34Z" transform="translate(-68.86 -68.63)"/><path class="cls-1" d="M220.66,270.63l-.34-3.59c0,.06,0,.06,0,.14a2.83,2.83,0,0,0,0,.3,5.39,5.39,0,0,0,.2,1.11C220.33,268.29,220.48,269,220.66,270.63Z" transform="translate(-68.86 -68.63)"/><path class="cls-1" d="M220.74,272.77l0,1.41c0,.17,0,.33,0,.42s0,.14-.06.06,0-.11-.05-.22a6,6,0,0,1-.09-.69l.06.76c0,.15,0,.32.07.41l.65,0H222c.14,0,.18,0,.12,0a3.21,3.21,0,0,0-.46-.07l-.19,0h-.09l-.21,0-.24-.05s0-.18,0-.28Z" transform="translate(-68.86 -68.63)"/><path class="cls-1" d="M233.48,274.54c.84-.18,1.66-.39,2.5-.58s1.38-.52,2.06-.81c-.25.11-.67.26-1.15.43s-1,.28-1.57.42A14.2,14.2,0,0,0,233.48,274.54Z" transform="translate(-68.86 -68.63)"/><path class="cls-1" d="M237.2,263.25c.08-.09-.22,0-.57.16a5.3,5.3,0,0,1-.92.27l-1.22.59-1.24.49A41.32,41.32,0,0,0,237.2,263.25Z" transform="translate(-68.86 -68.63)"/><path class="cls-1" d="M235.71,263.68a18.24,18.24,0,0,0,3.41-2.22C236.14,263.58,235.43,263.64,235.71,263.68Z" transform="translate(-68.86 -68.63)"/><path class="cls-1" d="M220.05,265.87h-.22a8.2,8.2,0,0,0,.1.85l.06.41.07.69.32,2.91-.51-4.82c.29,0,.58,0,.9,0Z" transform="translate(-68.86 -68.63)"/><path class="cls-1" d="M245.29,250.16l-.16,2.33.17-2.07c0-.69,0-1.37,0-2Z" transform="translate(-68.86 -68.63)"/><path class="cls-1" d="M244.67,240.16c.42,1.59-.14-2.26.24-.57a60.36,60.36,0,0,0-1.77-6.75c.29,1,.57,2.08.82,3.3A36.38,36.38,0,0,1,244.67,240.16Z" transform="translate(-68.86 -68.63)"/><path class="cls-1" d="M242.17,229.6c.29,1,.61,2.08,1,3.24C242.83,231.74,242.52,230.67,242.17,229.6Z" transform="translate(-68.86 -68.63)"/><path class="cls-1" d="M243.43,256c.08-.14.21-.33.43-.77a11.25,11.25,0,0,0,.78-2.23l-.62,1.5C243.87,254.92,243.64,255.44,243.43,256Z" transform="translate(-68.86 -68.63)"/><path class="cls-1" d="M244,254.51l0,0c.23-.84.43-1.55.56-2.12l.18-1.24-.17,1.14C244.49,252.8,244.26,253.54,244,254.51Z" transform="translate(-68.86 -68.63)"/><path class="cls-1" d="M243.27,256.34l.16-.38A1.28,1.28,0,0,0,243.27,256.34Z" transform="translate(-68.86 -68.63)"/><path class="cls-1" d="M229.51,265.38c2.24-.59,6.66-2.36,2.25-1C230.22,264.91,232.81,264.34,229.51,265.38Z" transform="translate(-68.86 -68.63)"/><path class="cls-1" d="M242.06,258c-.42.59-.88,1.15-1.35,1.7a19.8,19.8,0,0,1-1.59,1.45c.1,0,.78-.42-.13.34a14.17,14.17,0,0,0,1.68-1.61A19.39,19.39,0,0,0,242.06,258Z" transform="translate(-68.86 -68.63)"/><path class="cls-1" d="M243,256.08c-.26.65-.64,1.25-1,1.88l.82-1.38A4.1,4.1,0,0,0,243,256.08Z" transform="translate(-68.86 -68.63)"/><path class="cls-1" d="M243.61,236.39c-.46-1.73-1-3.54-1.48-5.64.51,2.25,1.08,4.56,1.57,6.83C243.83,237.88,244.17,238.84,243.61,236.39Z" transform="translate(-68.86 -68.63)"/><path class="cls-1" d="M244.93,245.06c0-.12,0-.28,0-.4C244.91,244.91,244.89,245.11,244.93,245.06Z" transform="translate(-68.86 -68.63)"/><path class="cls-1" d="M237,210.16l.05.34.05.07Z" transform="translate(-68.86 -68.63)"/><path class="cls-1" d="M243.74,238c.32,1.73.51,2.77.76,3.76-.27-1.3-.45-2.7-.8-4.15C243.63,237.44,243.61,237.42,243.74,238Z" transform="translate(-68.86 -68.63)"/><path class="cls-1" d="M240.64,223.88l.61,3A27.55,27.55,0,0,0,240.64,223.88Z" transform="translate(-68.86 -68.63)"/><path class="cls-1" d="M244.89,244.06l0,.26C244.91,243.74,244.89,243.81,244.89,244.06Z" transform="translate(-68.86 -68.63)"/><path class="cls-1" d="M244.89,244.06c-.13-.91-.26-1.62-.39-2.33.14,1.07.28,2.07.4,2.93C244.89,244.44,244.89,244.22,244.89,244.06Z" transform="translate(-68.86 -68.63)"/><path class="cls-1" d="M234.13,204.26a48,48,0,0,1,2.29,8.51c1.08,3.72,1.1,1.11.64-2.27-.11-.09-.19-.07-1.27-3.92.24,1.38,1.89,8.66.91,5.43a52.11,52.11,0,0,1-1.5-6.74c.29,2.18-2-6.43-2-5.23l1.24,4.47C234.37,204.6,233.87,203,234.13,204.26Z" transform="translate(-68.86 -68.63)"/><path class="cls-1" d="M238.87,217.89l.42,1.58c-.42-1.82-.66-3.14-1.11-5.57a20.09,20.09,0,0,0-1.07-3.33l1.93,7.85Z" transform="translate(-68.86 -68.63)"/><path class="cls-1" d="M241.07,226.63c-.52-1.2-1.56-5-1.2-2.6,1.17,4.67,1,3.23,1.77,6-1.93-7.53.66,2.14-.58-3.34l1.07,4.06c-.31-1.36-.6-2.68-.88-3.92l0,.17v0h0c.05.33.06.44,0,.07l-.05-.15a1.85,1.85,0,0,1-.16-.32c-.5-2.2,0-.36.16.32,0,0,.05.08.06.08v0l-2-7.53C239.66,221.08,240.16,223.08,241.07,226.63Z" transform="translate(-68.86 -68.63)"/><path class="cls-1" d="M235.51,262.41c.23-.09.23-.07.25-.06C236.19,262.07,236.36,262,235.51,262.41Z" transform="translate(-68.86 -68.63)"/><path class="cls-1" d="M238.32,260.83l-.74.63c-.35.24-.86.55-1.67,1-1.5.61,0-.1-.15-.12-1,.52-3.53,1.74-.26.4.17-.09.34-.17.5-.27l1.08-.58.56-.3.52-.36,1-.68.84-.74a8.93,8.93,0,0,0,1.16-1.15c.25-.27.37-.38.28-.27A20.1,20.1,0,0,1,238.32,260.83Z" transform="translate(-68.86 -68.63)"/><path class="cls-1" d="M244.23,244.16a55.73,55.73,0,0,0-1.12-6.45c.2,1.09.29,2.2.42,3.3l.09-.18c.16.91.23,1.55.28,2s.1.71.14.87C244.12,244,244.16,243.93,244.23,244.16Z" transform="translate(-68.86 -68.63)"/><polygon class="cls-1" points="168.08 140.78 168.51 141.56 167.29 138 168.08 140.78"/><polygon class="cls-1" points="166.02 132.61 166.29 132.87 165.64 130.74 166.02 132.61"/><path class="cls-1" d="M164.94,102l-.61,1.81Z" transform="translate(-68.86 -68.63)"/><path class="cls-1" d="M156.71,93.47l-.3.18C157,93.44,157.26,93.34,156.71,93.47Z" transform="translate(-68.86 -68.63)"/><path class="cls-1" d="M136.71,202.56c-2.74.49-5.82,1-5.44,1.1h.88C134,203.16,135.47,202.82,136.71,202.56Z" transform="translate(-68.86 -68.63)"/><path class="cls-1" d="M136.48,111.07l.81-.14,1.77-.65Z" transform="translate(-68.86 -68.63)"/><path class="cls-1" d="M134.8,112.41l-3.58.75C132,113,133.18,112.77,134.8,112.41Z" transform="translate(-68.86 -68.63)"/><path class="cls-1" d="M138.93,172.76l-.57,2.16C139.57,171.66,138.94,173.05,138.93,172.76Z" transform="translate(-68.86 -68.63)"/><path class="cls-1" d="M197.52,216.45c.49,2.34.92,4.2,1.31,5.83A41.86,41.86,0,0,0,197.52,216.45Z" transform="translate(-68.86 -68.63)"/><path class="cls-1" d="M161.78,96.65a6.08,6.08,0,0,0,.52,1.55C162,97,161.77,96.39,161.78,96.65Z" transform="translate(-68.86 -68.63)"/><path class="cls-1" d="M200.5,229l-.25-1.24c-.46-1.69-.92-3.39-1.42-5.47A67.69,67.69,0,0,0,200.5,229Z" transform="translate(-68.86 -68.63)"/><path class="cls-1" d="M204.65,174.15l.6-.12C205.31,174,205,174.05,204.65,174.15Z" transform="translate(-68.86 -68.63)"/><path class="cls-1" d="M248.45,210.93c-.2-.76-.51-2-.81-3.17C247.77,208.33,248,209.29,248.45,210.93Z" transform="translate(-68.86 -68.63)"/><path class="cls-1" d="M216.13,182.3c1.73-.45.27-.09,0,0Z" transform="translate(-68.86 -68.63)"/><path class="cls-1" d="M224.78,181a2.06,2.06,0,0,0-.67.28A2.84,2.84,0,0,1,224.78,181Z" transform="translate(-68.86 -68.63)"/><path class="cls-1" d="M191.23,237.06l-.15,0C191.59,237,191.5,237,191.23,237.06Z" transform="translate(-68.86 -68.63)"/><path class="cls-1" d="M218.77,181.74l-2.24.49Z" transform="translate(-68.86 -68.63)"/><path class="cls-1" d="M218.39,181.73l1.52-.35C220.12,181.29,219.92,181.31,218.39,181.73Z" transform="translate(-68.86 -68.63)"/><path class="cls-1" d="M213.72,182.91l2.81-.68c-.34.07-.49.1-.4.07Z" transform="translate(-68.86 -68.63)"/><path class="cls-1" d="M175.55,136.08l.37-.08C177.65,135.48,176.89,135.69,175.55,136.08Z" transform="translate(-68.86 -68.63)"/><path class="cls-1" d="M118.66,185.57l-.06.19.1-.24Z" transform="translate(-68.86 -68.63)"/><path class="cls-1" d="M120.75,179.5a44.48,44.48,0,0,1-2,6l1.33-1.77Z" transform="translate(-68.86 -68.63)"/><path class="cls-1" d="M153.5,133l1.75-4.16c-1.59,5.22-3.06,8.87-1.33,5-.42-.84,6-16.46,5.61-17.28l1.17-2.74-.61,1.73c2.31-5.31,1-4.2,3.71-11.15.59-1.49,1-2.52,1.36-3.28,0-.22,0-.25.06,0,0,.1-.12.41-.28.89l.31-.89-1.49-5.36c-.1-.42-.15-.66-.19-.89s-.06-.35,0-.28a13.39,13.39,0,0,1,.44,1.53l-1-4.14-6.58,1.67.06,0c-1.2.4-3.92,1.25-5.26,1.65-2.2.45,1.08-.34.5-.28L147,96.36c-2,.3,1.91-.84,5.19-1.63-4.59.45-3.89,1.15-13.54,3.14l4.46-1.2c-3,.34-6.44,1.35-11.56,2.37,1.23-.18,10.28-1.93,5.17-.49-1.46.31-3.37.76-6.12,1.59-.08-.23-2.77.5-6.16,1.35l.15-.36c-3.64,1-3.31,1.08-5.43,1.76a24.65,24.65,0,0,1-6,1c-6.55,1.57,4.62-.74-3.11,1.24-2.53.57-4.7,1.11-7,1.7l-8.36,2.27.56,2.11c.19.8.24,1.06.29,1.32s.07.39.08.46-.06,0-.14-.24l-.24-.7c0-.06-.07-.17-.07-.13a2.17,2.17,0,0,0,0,.3l1.08,3.32c.2.82.06.58,0,.45a5,5,0,0,0,.63,1.69c.16.3.27.42,1.1,3.59v0a19.61,19.61,0,0,1,2.73-.75l3.73-.77a88.38,88.38,0,0,0,8.94-2.19c1.39-.25-.61.36-.16.38,7.53-2.15,6.46-1.81,12.61-3.7l5.37-1.11c-4,.73.95-.78,5.26-2.09l-3.42.57,6.93-1.9c.85-.15.18.13-.93.54l1.26-.39c2.52-.51,1.27,0-.47.61l-2.56.43c-1.68.62-3.24,1.23-2.83,1.32.44-.15,1.31-.39,2.26-.65-.44.16-.71.28-.5.26s1-.28,2.08-.64l1.67,0,.35-.23,4.59-1,.75-.16.53-.1.5-.1c.11-.06.1.07.12.16s-.07.17-.09.26l-.25,1.07-.71,2.33-1.52,5c-1.08,3.48-2.36,7.41-4.15,12.43.67-2.57-.21-.68-.45-.92,1.33-2.62,2.76-7.8,4.75-13-1,2.7-1,2.05-.75,1.34l-3.16,9.35c-.16-.29-.91,1.9-1.91,4.28,1.15-1.65-2.25,7-3.51,10.82-.24.17-.07-.79,1.68-5.36-2.24,4.93-1.88,6.75-4,11.6a15.67,15.67,0,0,0,.74-2.19c-.83,2.67-3.32,9-2.9,7.47l.41-1.11c-2.82,7.41-8.43,22.64-8.44,23.9a4.74,4.74,0,0,1,0-1.64l-3.6,13.78c.09-1.3-2.39,2.88-.29-3.36-.71,1.76-1.58,3.93-2.85,7.71.5-1.19,1.62-2.83,1-1.17-2.07,4.41-1.36,3-3.79,8.57.27-.65.39-.75.44-.62a3.68,3.68,0,0,1-.21,1.39l.44,1.32c.14.44.28.94.41,1.46-.2-.44-.49.38-.82-.69l.9,2.75c.27.77.7,2.22,1,3.28l2.27-.71c-1.1.33-1.3.5-.83.51a9.44,9.44,0,0,0,1.12-.08c.36,0,.78-.08,1.2-.14-.79.08,6.38-1.58,8.34-2.12l-3.16.65c8.35-2,8-2.81,16.3-4.84-1,.37-2.29,1.31,1.93.34a136,136,0,0,1,15.45-5.5l1.44-.19,5.56-1.57c-3.39,1.29-13,4.61-18.24,6.28a54.45,54.45,0,0,0,5.58-1.2c1.69-.26-2.48.86-3.86,1.21l10.9-2.6c-.57-.21,8.23-2.4,7.74-2.56l-11.72,3.27c-.55-.21,6.6-2.63,14.31-4.48,2-.36-1.32.94-1.13,1,1-.36,7.26-2,8-2.12l-3.22,1c1.08-.23,2-.49,3-.75l1.37-.4.34-.1.19-.07.35-.12.38-.12.1,0a.32.32,0,0,1,0,.09l.06.18.12.39.13.5c.27,1,.53,2.19.77,3.49.42,1.79.9,5.42,1.17,5.68-.35-3,.66-3.85,1.42-2,.13.63,2,9.43,2.28,11.5.44,3-1.78-4.22-1.42-1.66a16.37,16.37,0,0,1,.83,2.34c.39,1.88-.46-.71.58,3.34.5.6,2,8.26.76,1.85,1.08,3.94,1,4.23,2.15,8.89-.08-.77.37.23,1,1.92.3.84.64,1.86,1,2.91l.48,1.59.4,1.36c-.06-.06-.07.14,0,.44.2,0,.51,0,.72-.06l12.08-2.87c-.61-2.56-1.25-5.19-2-8.38-.1-.72-.91-4.4-.38-2.88-.33-1.08-.69-2.05-1.28-4.39-.84-4.6,1.34,5.21.83,1.67-.27-.25-1.77-6-2.72-9.29,0,1.1,1.86,7.71,2.8,11-.4.12-2.27-5.58-4.43-13.47-1.67-6.27-.42-2.79-.75-3.87-1.11-4.62-1.85-7.14-2.46-9.09-.3-1-.57-1.8-.85-2.67l-.2-.67-.24-.83L191,189l3.09-.77,2.89-.65c4-.71.3.47,1.21.45-2.49.67-4.33,1.08-6.29,1.52l.61,2.8c.19.86.39,1.71.61,2.61l-1-4.39c.27.92.61,2.12,1,3.43s.67,2.61.86,3.55c-.1-.6-.33-1.64-.65-3l-1.16-4.84L203,187.05c3.77-.92,7.46-1.81,10.39-2.46,1.6-.49,4.38-1.28,3-1.06l-2.88.76c-2.7.45,5.37-1.64,1.69-.83l6-1.72,3.38-.91,1.81-.45,2.62-.63.19.78q0,.84.06,1.53a20.43,20.43,0,0,0-.4-2.05l-2.37.56c-.63.16-1.22.32-1.65.45.39-.12.91-.25,1.52-.39l2.46-.56,1,4.53a22.16,22.16,0,0,0,1,3.26L230,184c1.11,3.85,2.62,8.58,3.73,13.44-.25-2.27-.31-1.1-.82-4.63.31,3.09-3.05-12.37-2.31-7.47-.12-.9-.27-1.74-.43-2.55l-.13-.64-.22-1-.47-2-2.11.49-1.77.4c-1,.2-2,.41-3.19.61.17.07,1.68-.21-2.39.75-.17.07-.6.21-.87.3l-.27.06.22,0c-.17.06-.18.07.09,0,1-.19,1.77-.34,2.1-.36-2,.72-8.41,2.32-10.57,3-2.42.55,1-.36-.36-.14l-3.22,1c-.37-.13-6.49,1.23-.84-.31l-5.11,1.26c-1.45.3-3.16.68-4.81,1.07l-2.41.59-3.47.9.19.69L191,191l.36,1.36.5,1.74c.28.94.41,1.33.06.3l2.13,8,0,.09c1.94,7.91,4.4,16.18,6.26,25.31.42,1.61.86,3.25,1.44,5.46l-2.1.5-.91,0c-1.11.3-2.58.65-4.11,1l-2.31.54-.74.16a4.38,4.38,0,0,0-.13-.52c-.15-.54-.27-1-.37-1.21-.41-3.81-4-16.6-5.41-22.63l-.3-.17c-1-4.14-2.07-8.09-3.45-13.2l-.14.37-.48-1.76-.56-2.23-.38-1.56-.1-.41c-.09,0-.26,0-.38.07l-.82.19-2.83.67c-3.18.72-6.69,1.51-10.19,2.39a30.61,30.61,0,0,1,3.51-.88c-8.49,1.59-17.56,4.74-25.23,6.27-1.87.55-3.25.86-4.59,1.13l.47-.12-.78.19-2.65.53c.8-.14,1.57-.29,2.23-.43-1.45.37-3.66.94-5.81,1.54h-1l-.5.13c-2.15.44-1.68.54-.51.43-1.08.31-2.07.61-2.83.85-1.82.06-5.65,1.54-8.11,1.73-.3.12-1,.31-1.81.55l-1.29.36-.83.24c-.34-1.2-.71-2.48-1-3.53-.2-.66-.38-1.24-.54-1.7-.08-.22-.15-.42-.22-.58a1.38,1.38,0,0,0-.15-.26c.05,0,0-.53.17.35l-.11-.53.54-1.37.59-1.55c.37-1,.73-2,1-3l.65-.88,1.51-5.24c1.33-3,1.91-4.27,1-1.12,2.43-7.55,2.12-6.07,4.13-12.5l.07.37c.83-2.26,1.93-6,2.59-7.26,2.23-4.91,9.34-24.95,14.48-37.78-1.48,2.31,2.49-5.93,2.26-6.6.41-.71,1.15-2.49.48-.35,1.17-3.33,2.15-5.79,3-8,.42-1.11.82-2.16,1.19-3.22l.59-1.75.43-1.28.2-.64.06-.55c.16-.54.15-.11.12.38s-.34,1.17-.07.6a2.71,2.71,0,0,0,.21-.87l.05-.51a3.17,3.17,0,0,0,0-.45l0-.41-.13-.55c0-.13-.12-.05-.18-.08H149l-.34,0c-.38,0-.07-.07.52-.06.13,0,.35-.07.36.2a3.2,3.2,0,0,1,.12.54,4,4,0,0,1,.08,1,2.63,2.63,0,0,0,0-.76,2.94,2.94,0,0,0-.11-.68l-.06-.21,0-.1s0,0-.08,0l-.34,0-.65,0-.6,0h-.29l-.4.1-1.45.4-.65.18-.47.13-.62.21c-.39.13-.71.24-1,.35a3.16,3.16,0,0,0-1.54,1,47.36,47.36,0,0,0-7.85,2.06c-1.26.18-3.35.56,1-.57-2.45.59-15,3.52-15.15,3.9-.79.11-3.42.82-4.06,1-5.49,1.34-6,1.43-11.36,2.8l1.51-.32a17.51,17.51,0,0,1-3,.94l-3.66.84-.32-1.27.06.07-.91-4-.52-2.1-.31-1.16c-.08-.28-.17-.61-.29-1.11l4.54-1-.6-.1c.8-.73,8.78-1.87,14.43-3.48l-2.09.38c3.07-1,8.87-1.48,12-2.2.69-.12-1.06.34-2,.61,8.26-1.74,1-.57,7.07-2.15,1.17-.12-1.34.77,2.77-.21,2.08-.38,11.78-3.5,17.46-4.57-1.27.18-2.53.35.28-.44,1.58-.41,3.59-.85,5.69-1.3l3.17-.7,2.05-.47.13.48.16.56c.18.63.37,1.21.55,1.73a2.63,2.63,0,0,1,.1.81l.78,2.83c-.57,1.67-1.23,3.56-1.8,5.21s-1.08,3.23-1.27,4c-1.87,2.67-7,20.07-7.71,19.74l-3.62,9.88,0-.29A112.81,112.81,0,0,0,145,150.41c-.59,1.44-.27.35-.26.22-3.56,9.16-3.87,10.08-6.38,17.94l-.53.72c-.33,1.07-1.65,4.37-3.29,8.54-.8,2.09-1.68,4.39-2.59,6.74-.43,1.18-.86,2.37-1.3,3.54-.47,1.34-.93,2.67-1.39,4a9.58,9.58,0,0,1,.44-1.49l-.52,1.46-.27.74c0,.23-.08.44-.11.66a9.42,9.42,0,0,0-.07,1.11l.09.33,0,.17c0,.07.09,0,.13,0h.61c.41,0,.77,0,1.24,0l1.62-.4,2.42-.58,8.63-2c5.49-1.27,10.12-2.4,11.94-3.32l6.89-1.94c-9,2.17,1.25-.71-2.49.06,3.52-.93,9.2-2,4.87-.88l-.69.13c-1.48.85,11.21-2.62,11-2.25l2-.5.52-.13a.76.76,0,0,0,.24-.07l-.06-.26-.26-1-.82-3.31-1.42-5.79-2.78-11.48q-2.62-10.87-5.16-21.42l5-1.22-2,.12,5.79-1.42c1.53-.29,2.1-.23-2,.78a34.37,34.37,0,0,0,4.28-1.08,25,25,0,0,0,2.69-.91c8.11-1.86-3,1.2-.57.59l3.35-.86-.76.15c2.68-.82,2.89-1,7.85-2.25a20.11,20.11,0,0,1,2.89-.47l.4-.07,1.5-.39,7.29-1.78-3,.44c3.19-.94,6.84-1.68,3.41-1.17,1.25-.18,3.54-.67,6.34-1.32l8.56-2.07c.84,3.38,1.66,6.69,2.26,9.09l-1.7.41-1.49.34c-4.47,1.32-8.93,2.43-14.46,3.77,1.38-.28,2.28-.17-2.49,1,1.58-1.09-8.8,1.88-12.76,2.37,1-.16.26.08-1.21.48L180.37,146l.58,2.18c.18.66.25.85.32,1.07s.11.23.11.08a3.45,3.45,0,0,0,0-.35c0-.17,0-.38-.12-.75l.28,1.25c.06.28.09.48.11.61s0,.27,0,.25-.22-.2.08,1.33c1.12,4.06,2.21,8.51,3.33,13.19.55,2.34,1.12,4.75,1.7,7.19l2,8.44,5.79-1.45c.16-.13-1.83.23.65-.52l6.28-1.11c2.3-.62,2-1,6.3-1.77-.62.07-1.53.19,0-.23,6.78-1.55,13.62-3.23,20.5-4.95l-1-.55,1,.55,9.68-2.44q1.13,4.5,2.27,9,1.22,4.91,2.42,9.82c1.58,6.54,3.11,13.09,4.5,19.62-.62-3.19-.08-1.1.52,1.31-.35-1.58.22,0,.26-.35l2.1,9.82c.76,1.69,2.62,10.44,3.18,11.38l-.83-3.07c1.39,4-.62-5.94,0-5.46-1.56-4.49-2.4-12.26-4.86-19.66-.32-1.68.5,1.39.39.47a71.48,71.48,0,0,1-2.27-8.46l.17.47c-1.32-5.22-2.27-9.15-3.19-13.08-1-4.23-2-8.46-3.31-14.07l-5.6,1.33h1.06c-2.91.69-3.54.77-4.91,1-3.24,1.18,8.15-2,5.21-.86-1.32.16-4,.78-7.2,1.54l1,.56-1-.56c-6.25,1.51-14.16,3.57-16,3.65-4.46,1.1,1.37-.06-3.09,1l-1.22.15-1.08.47c-2.93.69-4.45.88-4.59.78.71-.16,2-.53,2.77-.73-3.84.77-10.68,2.71-12,3l4.31-1-6.67,1.71c-1.21-4.84-2.47-9.9-3.71-14.84-.67-2.64-1.34-5.26-2-7.8l-1-3.73c-.31-1.17-.62-2.32-.93-3.43a6.61,6.61,0,0,0,.08.77l-.48-1.72,1.35-.36,1.63-.39,2.67-.62c1.78-.39,3.87-.87,8.27-2l-.35.12c1.94-.6,4.57-1.31,7.27-2-2.46.75,4.75-.92,1.51,0,9.69-2.64,4.78-1.37,11.11-3.37l1.53-.19c1.67-.54,1.95-.7,4.8-1.46-.21-.82-.49-1.87-.85-3.24.15.51.25.81.32,1s.12.33.13.31a1.18,1.18,0,0,0,0-.35l-.08-.54c0-.37-.1-.73,0-.71a1.22,1.22,0,0,1,.16.35l.15.46.1.34.16.56c-.21-1-.42-1.92-.61-2.82l-.56-2.4-1.29-5.08-7,1.86a39.91,39.91,0,0,1-4.91,1c-4.62,1.68,9-2,6.38-1.18,2.27-.39-3.83,1.35-7.08,2.1s-5.77.76-14.08,2.83l1.7-.46c-3.14.65-6,1.69-9.91,2.43-2.06.83-5,1.21-5.48,1.75l7.6-2c-4.29,1.17-8.23,2.63-15.4,4.18.53-.22,2.63-.85,4.07-1.26-2.11.4-4,1.07-6.18,1.48.52-.53,9.24-2.38,13.79-3.82-2.27.39-8.68,2.45-6.46,1.46a31.33,31.33,0,0,1-4.78,1.43l-2.91.68-1.69.42-2.47.63.59,2.17c.23.84.34,1.15.51,1.68l-.33-.32c.26.89.83,2.7,1.23,4.34l-1-2.89c1.39,4.49,2,8.84,3.19,13.17-2.28-9.15-.24-2.12-1-6,3.11,11.2,1,6.63,4.26,19.24-.46-1.71-1.46-6.46-.69-3.81.55,2.42,1.25,5.61,1.5,7.12,2.12,8.35-.09-1.35.94,2.18a20.88,20.88,0,0,0,.85,3.59l.59,1.8c.13.41.17.49.25.73l.11.35.06.19,0,.09s-.05,0-.08,0l-.28-.18-.72.16-1.21.3c-.74.18-1.28.33-1.68.45a7,7,0,0,0-1.32.49c-.49.25-.85.46-5.17,1.43l3.55-1.22-4.46,1.19.86-.49c-4.82,1.41-6.35,1.73-11.13,2.84,1.14-.11-.52.58-4.74,1.64-2.92.57,1.55-.63-4.42.89a25.51,25.51,0,0,1,5.4-1.46c.25-.14,1.3-.48,1.56-.62-3.14.61-7.81,1.9-10,2.44.83-.2,1.83-.44,2.35-.53l-8.59,2.48c-1.39.25-.33-.09.73-.42l-4.64,1.31c.21-.15.31-.28.49-.41l.14-.1a.41.41,0,0,1,.11-.06L133,192c.5-.17,1.17-.36,2.08-.61L133,192l-.46.13-.13.05-.28.1-.32.1-.16.06c-.05,0-.05-.08-.07-.11l.16-.6s.1-.15.17-.25l.54-1.2c.36-.81.64-1.42.49-.89,1.75-4.39,3.67-11,6-16.81.08-.32.27-1,.71-2.2,2.09-5.5,4.13-10.31,6.31-16.94l1.7-3.59c1.83-5.15-2.28,4.87.76-3.7,2.14-6.08,1.12-2.15,2-4.24A138.18,138.18,0,0,1,155.32,128C154.7,129.89,154.11,131.31,153.5,133Zm-16.7-34.5a40.46,40.46,0,0,1,4.7-1.24A21,21,0,0,1,136.8,98.53Zm9.14,10.66a28.55,28.55,0,0,1-3.77.89l1.9-.48,1.05-.24Zm51.23,78-.14,0C194.19,187.87,195.2,187.65,197.17,187.21Zm5.89-1.36c.58-.17.53-.2.28-.17-.4.16-1.71.49-3.22.85A18.74,18.74,0,0,0,203.06,185.85Zm-8.6-52.8-1.15.22C195.87,132.56,195.16,132.8,194.46,133.05Z" transform="translate(-68.86 -68.63)"/><path class="cls-1" d="M135,112.24a1.26,1.26,0,0,1-.57,0C134,112.41,134,112.46,135,112.24Z" transform="translate(-68.86 -68.63)"/><path class="cls-1" d="M139,172.36l-.08.19a1.42,1.42,0,0,0,0,.21Z" transform="translate(-68.86 -68.63)"/><path class="cls-1" d="M183.88,214.84c-.26-1.22-.39-1.9-.46-2.36A8.85,8.85,0,0,0,183.88,214.84Z" transform="translate(-68.86 -68.63)"/><path class="cls-1" d="M231.37,186.24l-1-3.74c.46,1.81.57,2.48.76,3.4C231.17,185.81,231.07,185.07,231.37,186.24Z" transform="translate(-68.86 -68.63)"/><path class="cls-1" d="M238,219.23l.46,1.7.07-.18C238,218.41,237.47,216.8,238,219.23Z" transform="translate(-68.86 -68.63)"/><path class="cls-1" d="M231.45,189.92a31.66,31.66,0,0,0,1.22,5.31l-.11-.47C233,195.47,232.24,192.69,231.45,189.92Z" transform="translate(-68.86 -68.63)"/><path class="cls-1" d="M232.83,195.84c.2.81.41,1.64.61,2.43A10.33,10.33,0,0,0,232.83,195.84Z" transform="translate(-68.86 -68.63)"/><path class="cls-1" d="M210.47,183.87c1.26-.25.72-.44,1.45-.54C213.25,182.74,203.67,185.7,210.47,183.87Z" transform="translate(-68.86 -68.63)"/><polygon class="cls-1" points="162.47 123.58 162.48 122.57 161.92 121.14 162.47 123.58"/><path class="cls-1" d="M219.19,182.75l4.23-1a4.59,4.59,0,0,1,1.1-.36C221.93,182.05,219.08,182.7,219.19,182.75Z" transform="translate(-68.86 -68.63)"/><path class="cls-1" d="M224.52,181.41l1.92-.48,1.63-.44-1.73.44Z" transform="translate(-68.86 -68.63)"/><polygon class="cls-1" points="160.97 117.84 160.71 116.58 159.99 113.61 160.97 117.84"/><path class="cls-1" d="M196.36,207.81l1.21,4.58c.2.45-.06-.82-.52-2.52C196.72,208.79,196.26,207.09,196.36,207.81Z" transform="translate(-68.86 -68.63)"/><path class="cls-1" d="M193.57,193.76a16.43,16.43,0,0,1,.32,2.07l.34.07Z" transform="translate(-68.86 -68.63)"/><path class="cls-1" d="M197,207.14c.2.43,1.9,6.6.43.78C197.2,207.48,196,202.9,197,207.14Z" transform="translate(-68.86 -68.63)"/><polygon class="cls-1" points="114.08 138.9 114.38 140.06 114.83 139.77 114.08 138.9"/><path class="cls-1" d="M133.15,206.12c5.48-1.23,1.22-.63,6.17-1.7,1.25-.43-4,.88-2.76.45C133.31,205.81,131.57,206.17,133.15,206.12Z" transform="translate(-68.86 -68.63)"/><path class="cls-1" d="M136.56,204.87l1.66-.49C137.27,204.65,136.83,204.78,136.56,204.87Z" transform="translate(-68.86 -68.63)"/><polygon class="cls-1" points="182.51 155.18 183.27 158.7 182.88 156.4 182.51 155.18"/><path class="cls-1" d="M253.4,230.44l-.11.9.81,2C253.89,232.59,253.48,231.06,253.4,230.44Z" transform="translate(-68.86 -68.63)"/><path class="cls-1" d="M126.92,100.31l-.25.14a25.21,25.21,0,0,0,3-.65Z" transform="translate(-68.86 -68.63)"/><polygon class="cls-1" points="94.8 37.78 95.09 36.99 94.27 38.36 94.8 37.78"/><path class="cls-1" d="M149.72,145c.57-1.58,1.24-3.43,1.82-5C150.32,143.45,149.22,145.31,149.72,145Z" transform="translate(-68.86 -68.63)"/><path class="cls-1" d="M254.05,266.09c-.83.64,0,1,0,1.25C255.22,266,253.87,266,254.05,266.09Z" transform="translate(-68.86 -68.63)"/><polygon class="cls-1" points="195.95 184.01 196.02 184.47 196.97 182 195.95 184.01"/><path class="cls-1" d="M274.28,239.9c-2,.46-2.95,4.95-5.12,6.89l-.54.17.15,1.72c.94-1.45,2-3.14,2.89-4.77A22.65,22.65,0,0,1,274.28,239.9Z" transform="translate(-68.86 -68.63)"/><path class="cls-1" d="M281.24,234c-.75.21.47-1.89-1.11,1.7a3.73,3.73,0,0,1,.29-.25C280.58,235.14,280.81,234.72,281.24,234Z" transform="translate(-68.86 -68.63)"/><path class="cls-1" d="M280.42,235.46c-.78,1.53.95-.77,0,0Z" transform="translate(-68.86 -68.63)"/><path class="cls-1" d="M283.72,228.23l-.53,2.26c.5-.28,1.44-2.08,1.33-1.3C285.28,227,284.77,227.27,283.72,228.23Z" transform="translate(-68.86 -68.63)"/><path class="cls-1" d="M283.65,225.87c-.08.38-.17.77-.28,1.14C283.59,226.89,283.77,226.63,283.65,225.87Z" transform="translate(-68.86 -68.63)"/><path class="cls-1" d="M282.72,229.43l.65-2.42c-.34.2-.78,0-.34,1.09C282.74,227.74,282.9,228.35,282.72,229.43Z" transform="translate(-68.86 -68.63)"/><path class="cls-1" d="M281.92,230.6c-.81,1-1.76,2.33-1.17.12-.88,1.95-1.07,2.88-.77,2.86S281.09,232.59,281.92,230.6Z" transform="translate(-68.86 -68.63)"/><path class="cls-1" d="M273.44,238.42c-.39.39-.79.79-1.22,1.15l-.38,1.44a6.16,6.16,0,0,1,1.06-1.49C273.33,239,273.66,238.49,273.44,238.42Z" transform="translate(-68.86 -68.63)"/><path class="cls-1" d="M289.51,215.35c-.25-.23-1,.48-1.41.52-.05.57-.13,1.12-.21,1.68C288.41,216.83,289.05,215.32,289.51,215.35Z" transform="translate(-68.86 -68.63)"/><path class="cls-1" d="M288.1,215.87l.23-2.53C287.62,215.43,287.74,215.9,288.1,215.87Z" transform="translate(-68.86 -68.63)"/><path class="cls-1" d="M282.35,224.87c-.15,1.39-.45,2.72-.68,4.11.35-1.61.72-3.2,1-4.83Z" transform="translate(-68.86 -68.63)"/><path class="cls-1" d="M292.1,206.11l.34,1.55c-.13-.91-.28-1.81-.47-2.72Z" transform="translate(-68.86 -68.63)"/><path class="cls-1" d="M293.21,199.84c.41,1.15,1.2-1.27,1.38-.1a15.94,15.94,0,0,0-.36-4.66A11.08,11.08,0,0,1,293.21,199.84Z" transform="translate(-68.86 -68.63)"/><path class="cls-1" d="M293.81,192.78a20.58,20.58,0,0,0,.42,2.3A9.78,9.78,0,0,0,293.81,192.78Z" transform="translate(-68.86 -68.63)"/><path class="cls-1" d="M289.63,209.32a2.81,2.81,0,0,0,1.32-1.68l-1.07.74C289.8,208.67,289.72,209,289.63,209.32Z" transform="translate(-68.86 -68.63)"/><path class="cls-1" d="M289.85,208.41l0,0c.29-1,.48-1.72.57-2C290.37,206.61,290.19,207.23,289.85,208.41Z" transform="translate(-68.86 -68.63)"/><path class="cls-1" d="M289.56,209.56l.07-.24C289.52,209.39,289.48,209.44,289.56,209.56Z" transform="translate(-68.86 -68.63)"/><path class="cls-1" d="M285.45,219.2c0-1.53.56-4.49-1.1-2C284.55,218.34,285.51,216.91,285.45,219.2Z" transform="translate(-68.86 -68.63)"/><path class="cls-1" d="M288.23,210.45c-.28.82-.62,1.63-.93,2.44.23,0,.69-.34.7.41C288.08,212.35,288.19,211.4,288.23,210.45Z" transform="translate(-68.86 -68.63)"/><polygon class="cls-1" points="219.43 140.51 219.37 141.81 219.68 140.9 219.43 140.51"/><path class="cls-1" d="M292.45,197.18a8.43,8.43,0,0,1-.08-1.82c0-.63.06-1.3.11-2-.3,1.48-.63,3-.86,4.46C291.85,198.06,292.23,198.78,292.45,197.18Z" transform="translate(-68.86 -68.63)"/><path class="cls-1" d="M291.25,202.66v-.26C291.15,202.54,291.1,202.66,291.25,202.66Z" transform="translate(-68.86 -68.63)"/><path class="cls-1" d="M293.24,179.58l-.16.22.15.06Z" transform="translate(-68.86 -68.63)"/><path class="cls-1" d="M291.42,198a4.28,4.28,0,0,0-.07,2.47c0-.85.13-1.74.27-2.69C291.51,197.71,291.44,197.68,291.42,198Z" transform="translate(-68.86 -68.63)"/><path class="cls-1" d="M293.78,188.87c-.21.58-.41,1.24-.63,1.93C293.5,190.25,294,189.1,293.78,188.87Z" transform="translate(-68.86 -68.63)"/><path class="cls-1" d="M291.56,202.07c0,.06,0,.11,0,.18C291.82,201.92,291.72,201.94,291.56,202.07Z" transform="translate(-68.86 -68.63)"/><path class="cls-1" d="M291.56,202.07a8,8,0,0,0-.21-1.56,16.1,16.1,0,0,0-.1,1.89A2.46,2.46,0,0,1,291.56,202.07Z" transform="translate(-68.86 -68.63)"/><path class="cls-1" d="M287.63,175.64c.4.08.81.82,1,1.86a6.85,6.85,0,0,1,.15,1.73,7.25,7.25,0,0,1-.39,1.87c.57,2.42,3.19.93,4.67-1.3-.36-.07-.62-.08-1.19-2.63-.33.92-1,5.67-1.68,3.52a7.49,7.49,0,0,1,0-2.83,8.42,8.42,0,0,0,.61-1.56c-.47.71-.87-.35-1.33-1.47s-1.05-2.29-1.73-1.88c.27.94.45,1.89.66,2.85C288.21,175.86,287.81,174.84,287.63,175.64Z" transform="translate(-68.86 -68.63)"/><path class="cls-1" d="M292.93,184.74l0,1.07a18.48,18.48,0,0,1,1.19-3.67c-.37-1.8-.66-2.16-.92-2.28-.07,1.75-.08,3.5-.2,5.25Z" transform="translate(-68.86 -68.63)"/><path class="cls-1" d="M292.65,190.6c-.74-.91-1-3.46-2-2-.17,3.06.51,2.2.71,4.09.32-5,.32,1.48,1.19-2.09a22,22,0,0,1-.06,2.74c.2-.89.42-1.75.67-2.56l-.06.11v0h0c-.13.2-.2.27-.11,0a.37.37,0,0,1,0-.11.87.87,0,0,1-.3-.25c.33-1.45.25-.22.3.25,0,0,.08.07.12.08l0,0c0-1.7-.09-3.41-.13-5.1A44.81,44.81,0,0,0,292.65,190.6Z" transform="translate(-68.86 -68.63)"/><path class="cls-1" d="M283.45,214.1c.11-.12.17-.09.23-.08C283.67,213.68,283.64,213.55,283.45,214.1Z" transform="translate(-68.86 -68.63)"/><path class="cls-1" d="M284.53,212.34a3,3,0,0,1-.17,1.85c-.54.88-.39-.14-.68-.17,0,.73-.16,2.52.91.56v-.37c.87-1.79,2.65-4,2.67-3.59A7.36,7.36,0,0,0,284.53,212.34Z" transform="translate(-68.86 -68.63)"/><path class="cls-1" d="M288.94,201.59c.17-1.37.21-2.76.29-4.14l-1.06,2,.46,0C288.05,201.64,288.65,201.24,288.94,201.59Z" transform="translate(-68.86 -68.63)"/><path class="cls-1" d="M293.67,179.09l.91.56c-.41-.82-.9-1.63-1.35-2.43Z" transform="translate(-68.86 -68.63)"/><path class="cls-1" d="M293.37,173.6l.79.15c-.18-.47-.39-.95-.59-1.42Z" transform="translate(-68.86 -68.63)"/><path class="cls-1" d="M83,146.68l-.17,1.14A7.1,7.1,0,0,0,83,146.68Z" transform="translate(-68.86 -68.63)"/><path class="cls-1" d="M86,139l-.28-.34C85.76,139.14,85.84,139.34,86,139Z" transform="translate(-68.86 -68.63)"/><path class="cls-1" d="M215.42,73.05c-1.5-1.23-3.15-2.94-3.19-2l.3,1A8.63,8.63,0,0,1,215.42,73.05Z" transform="translate(-68.86 -68.63)"/><path class="cls-1" d="M128.39,86.12l.56,0,.65-1.27C129.23,85.23,128.8,85.63,128.39,86.12Z" transform="translate(-68.86 -68.63)"/><path class="cls-1" d="M129.11,89.86l-2.19.62A12.43,12.43,0,0,0,129.11,89.86Z" transform="translate(-68.86 -68.63)"/><path class="cls-1" d="M78.7,190.88c.33.41.66.81,1,1.21C79.49,190.06,79.16,191,78.7,190.88Z" transform="translate(-68.86 -68.63)"/><path class="cls-1" d="M276,120.64a20.86,20.86,0,0,0-1.69-3.55C275,119,275.16,120.61,276,120.64Z" transform="translate(-68.86 -68.63)"/><path class="cls-1" d="M75.45,140.36c-.12.77-.06,1.13.13,1.18C75.7,140.75,75.7,140.28,75.45,140.36Z" transform="translate(-68.86 -68.63)"/><path class="cls-1" d="M271.73,113.4c.09.28.21.52.32.79a17.38,17.38,0,0,1,2.3,2.9A6.83,6.83,0,0,0,271.73,113.4Z" transform="translate(-68.86 -68.63)"/><path class="cls-1" d="M191.72,283c.12,0,.27,0,.38.05S192,282.9,191.72,283Z" transform="translate(-68.86 -68.63)"/><path class="cls-1" d="M240.71,274.68c-.39.32-1.08.77-1.73,1.21A8.94,8.94,0,0,0,240.71,274.68Z" transform="translate(-68.86 -68.63)"/><path class="cls-1" d="M290.24,151.66c.35,1.12.15.16,0,0Z" transform="translate(-68.86 -68.63)"/><path class="cls-1" d="M288.19,157.91c-.15-.21-.31-.37-.51-.35A.77.77,0,0,1,288.19,157.91Z" transform="translate(-68.86 -68.63)"/><path class="cls-1" d="M260.36,108l-.06-.08C260.39,108.31,260.38,108.25,260.36,108Z" transform="translate(-68.86 -68.63)"/><path class="cls-1" d="M290.28,153.47a12.2,12.2,0,0,0-.1-1.52C290.18,152.21,290.2,152.67,290.28,153.47Z" transform="translate(-68.86 -68.63)"/><path class="cls-1" d="M290.62,153.14l.15,1C290.94,154.27,291,154.12,290.62,153.14Z" transform="translate(-68.86 -68.63)"/><path class="cls-1" d="M289.75,150.11a13.84,13.84,0,0,1,.43,1.84c0-.23,0-.34.06-.29Z" transform="translate(-68.86 -68.63)"/><path class="cls-1" d="M109.73,258.54c0,.07.08.14.12.22C110.9,259.23,110.5,259,109.73,258.54Z" transform="translate(-68.86 -68.63)"/><path class="cls-1" d="M185.23,76.66l.12,0-.15,0Z" transform="translate(-68.86 -68.63)"/><path class="cls-1" d="M181.37,77.21a4.1,4.1,0,0,1,3.83-.63c-.39-.85-.79-1.72-1.2-2.56C183.1,75.08,182.22,76.14,181.37,77.21Z" transform="translate(-68.86 -68.63)"/><path class="cls-1" d="M78.57,165.84l1.18-2.52c.77,3.37,0,5.55,1.45,3.27-.66-.19-.9-.92-.94-1.92a16,16,0,0,1,.34-3.55,23,23,0,0,0,.46-3.56c0-1-.12-1.76-.75-2l1-1.57c-.15.48,0,.6-.17,1.08,2.09-3-1.24-3,.43-7.18.68-1.42,1.45-2.29,1.39-1.2l.54-3.48c.41-.93.75-.53.36.39.55-1.67,1.21-3.3,1.8-5l.06.07a20.42,20.42,0,0,1,.16-3.57c.93-1.06,0,.74.42.57.23-1,.43-2,.69-2.95.61-.37.76.06.65.8a8.32,8.32,0,0,1-.91,2.71c1.81-.65,1.9-1.25,2.06-2.29a8.06,8.06,0,0,1,2.55-4.65c-.37.85-.67,1.72-1,2.57a5.79,5.79,0,0,0,2.47-2,22.51,22.51,0,0,1,2.67-3c-.77.31-5.25,4-4.21,1A7,7,0,0,0,93,124.51c.82.51,1.55-1,2.66-2.75l1,.84a5.3,5.3,0,0,0,.57-2.07,6.72,6.72,0,0,1,.1-1.6c1.61-1.94,2.69-1.75,3.73-1.67,2.69-2.93-3,1.13-.16-2.67a18.67,18.67,0,0,0,1.65-1.7,20.12,20.12,0,0,0,1.42-1.73c.9-1.21,1.7-2.64,2.9-4.3,2-1.34.26.85,1.12.51l.77-2.19c.38-.34.47,0,.52.18,1-1.5-.78-1,1.07-3.16-.18-.77,1.22-1.39,2.9-2.14s3.57-1.7,4.49-3.35c.9-.21.14.87.64,1.11,1.59-1.79,2.3-2.55,2.9-3.27s1.13-1.36,2.38-3c1.08-.37,2.16-.75,3.27-1-2.61.4-.52-2.13,1.47-4.36a23.71,23.71,0,0,0-2.4.16c1.18-1,2.37-1.92,3.63-2.79.59-.07.38.53,0,1.34.22-.23.43-.46.59-.65,1.65-.31,1.23.73.56,1.88l-1.8,0c-.58,1.24-1,2.49-.46,3a4.61,4.61,0,0,1,1.07-1c-.14.32-.21.58,0,.63s.43-.46.92-1.06l1.55.81-.05-.61c1.82-.61,3.62-1.22,5.46-1.69.77-.74,1.5-1.52,2.26-2.3s1.58-1.51,2.47-2.29a20.09,20.09,0,0,1,3.05-2.25,24.78,24.78,0,0,1,4-2c-1.28,1.45.16,1.73.43,2.94-1-.39-2.19.18-3.48.89l-2,1.15a10.41,10.41,0,0,1-2.25,1c1.67-.51,1.52.18,1.19.53,1.67-1.13,3.44-2.08,5.19-3.11.19,1,1.43.3,3,.31-.85-.8.12-1.43,1.59-2s3.46-1,4.57-1.59c.29.62-.12,1.42-3,1.93A3.54,3.54,0,0,0,158,78.08a3.57,3.57,0,0,1,3.52-1.33c-.72.14-1.12.11-1.34.5a9.42,9.42,0,0,1,3.35-.83c1.13-.08,2,.12,1.52.46l-.72.11c1.2-.1,2.71-.27,4.3-.5s3.28-.36,4.84-.62c3.12-.41,5.76-1,6.13-1.81a8.92,8.92,0,0,1-.9,2.41A102.87,102.87,0,0,1,187.55,71c-.84,1.41,1.81,5-2.2,5.64a12.28,12.28,0,0,0,4.93.29c-.74-.3-1.76-2.3-.67-2.34,2.78,2,2,1.05,5.37,2.89-1.11-.49.47-2.56,2.34-2.19-.34.29-.21,2.25-.91,2.39,1.62-.52,3.28-1,4.94-1.42-1.22.17-.56,1.83.31,2.66-.19-.26.77-.05,1.94.22a25.85,25.85,0,0,0,3.12.78l-1.75-1a8,8,0,0,0,5.37-.06,7.72,7.72,0,0,1,5.47.06c-.77.22-2.38,2.19,0,3.34a29,29,0,0,1,4.66-1.8,14.17,14.17,0,0,1,7.16-.27l.55,1c1.22.3,2.45.59,3.64,1-1.4.19-4,.49-6.58.7s-5.3.54-7.08.56c1.6,1.21.22.92,2.89,2,.69.95-1.8.26-2.58,0,2,1,4,1.92,5.89,3,.16-.67,1.45-.43,2.75-.15s2.54.69,2.7.13c-2.35-.79-4.79-1.35-7.15-2,.14-.67,1.47-1.09,3.35-1a12,12,0,0,1,3.1.48,14.71,14.71,0,0,1,3.25,1.43c.82,1-2,1.66-2.09,2.11a6.64,6.64,0,0,1,2.51.73,6.31,6.31,0,0,1,2.07,1.27l-2.11-.43a7.13,7.13,0,0,0,3.33,1.37,5.29,5.29,0,0,1,3.28,2.23c.9.67,1.67,3.3,2.29,2.77-.51-2.29,1.89-6.42,3.59-6.59.14.17,1.15,1.38,2.19,2.72A18.16,18.16,0,0,1,249.7,97c.66,2.11-4,.43-3.41,2.25.29-.25,1.35,0,1.77.21.7,1-1.1.56,1,2,1.21-.74,3.73,3.58,1.64,0a7.59,7.59,0,0,1,2,1.76,23.29,23.29,0,0,0,2,2.22c0-.65,1-.72,2.23-.41a10,10,0,0,1,3.82,1.8c-.35.13-.3.86-.27,1.21.84,1,1.56,1.89,2.22,2.74s1.17,1.71,1.72,2.53l1.66,2.46c.56.86,1.16,1.76,1.86,2.75,0,.55,1,2.66,0,2.19a6.6,6.6,0,0,1,2.14,1.94c.56,3-1.95-2.66-1.95-.06.74-.27,3,2.56,4.47,4.17.35-.58-.17-1.7-1.07-2.8a36.4,36.4,0,0,0-2.86-3c.7-.48,1.91-.19,3.4.73a14.37,14.37,0,0,1,2.39,1.84,28.13,28.13,0,0,1,2.46,2.73c1.24,1.68,1.15,2.25.91,2.39s-.71,0-.44.21a17,17,0,0,0,2.29,3.76,15.06,15.06,0,0,0,1.89,2c1.19,1.1,2.25,2.13,2.85,5.41-.06,2.78-1.95.87-2.47,1.68a13.45,13.45,0,0,1-1.34-3.85,15.88,15.88,0,0,0-.93-3.17l.68,2.73a10,10,0,0,1-2.14-3.94,10,10,0,0,0,.83,2.92c.25.65.56,1.36.88,2.13s.61,1.61.93,2.47.68,1.74,1,2.64.57,1.82.85,2.71a27.49,27.49,0,0,1,1.1,5c.63.89,1.49,2.53,1.67,1.6l-.65-1.75c.36-1.89,2.12,3.08,1.86.69a34.42,34.42,0,0,1,1.91,3.75,17,17,0,0,1,.77,2.22,15.54,15.54,0,0,1,.34,2.55l-1.09.88c.34-.13.3-2.43-.25-3.34.41.67.24,2.11.21,3.51a9.34,9.34,0,0,0,.14,2,2.31,2.31,0,0,0,.8,1.48c.16-.86.36-1.74.47-2.61.54,1.21,1.16,2.57,1.73,4a11.65,11.65,0,0,1,.88,4.69c1.07-1.58-.19-.72,1-3.17-1.48,2.18-1-8.27-2.43-4.81a6.48,6.48,0,0,0,.53-3.45,15.77,15.77,0,0,1,.16-4c-.37.18-.5,1.24-.93-1.47a2.88,2.88,0,0,1-.48-.5v-.19l0,.16c-.08-.1-.1-.11,0,.06a3.51,3.51,0,0,1-.28,1.49,10.08,10.08,0,0,1-1.66-3.2,23.39,23.39,0,0,0-1.48-3.29c-.25-1.59.63.5.8-.46-.42-.63-.85-1.25-1.33-1.85.8-.47.05-4.53,1.77-1.08L287,142a15.18,15.18,0,0,0-2.09-6.2c-.5-1.57-2.61-3.33-1.38-2.34-.46-.78-.9-1.56-1.38-2.33l-1.48-2.27.18-.15a54.46,54.46,0,0,0-4.44-6.91,33.84,33.84,0,0,1-4.37-7.63c-.62-.65-1.25-1.32-1.93-2.13a23.8,23.8,0,0,1-2.31-3l.23-.95a44.3,44.3,0,0,1-2.77-3.5c-.95-1.25-1.84-2.36-2.5-2.41a5.5,5.5,0,0,0-1.33-2.72A19.31,19.31,0,0,0,260.12,98c-.5-.5-1.07-1-1.64-1.48-1.16-1-2.35-2-3.5-2.85a29.81,29.81,0,0,1-2.92-2.41l-.75.7a26.17,26.17,0,0,0-3.43-2.45c-.62-.39-1.26-.77-1.93-1.17s-1.42-.75-2.19-1.15l-.33.86a20.77,20.77,0,0,1-4.58-3c-.84-.65-1.72-1.34-2.65-2a27.59,27.59,0,0,0-3-1.78c.44-.16,1.45.49,2.09,1.07a11.87,11.87,0,0,0-3.49-2.61,29.43,29.43,0,0,0-4.13-1.49c-1.38-.45-2.81-.74-4.11-1.2A14,14,0,0,1,220,75.23a5.65,5.65,0,0,1-2.89-1,1.35,1.35,0,0,0,.31.07,4,4,0,0,0-.48-.19,17.43,17.43,0,0,0-1.52-1,11.59,11.59,0,0,0,1.25.92,24.2,24.2,0,0,0-3.83-.83L212.53,72,212.2,72c-1.28-.76-1.22.1-.7,1a8,8,0,0,0-2,.06c-.35-.89-1.31-1-2.31-1.14a3.29,3.29,0,0,1-2.63-1.23c-.56.3-2.37.08-4.17,0s-3.6.09-4.09.87c0-.23-.42-.4.35-.29a9.11,9.11,0,0,0-4.58-.48l-.55-1.29-1.81.63-1.79.72c-2-.87-2.93-1.36-.75-2.18-1.31.29-2.21.45-2.9.56s-1.2.2-1.67.26a17.37,17.37,0,0,0-3.92,1l.2-.8c-1.55.08-3.95,1.23-4.91.61a13.65,13.65,0,0,0-4.29-.34,30.16,30.16,0,0,0-3.12.24l-3.54.43c-4.91.79-10.4,2-14.87,2.64,1.16.88.09.89-1.24,1s-2.94.23-2.81,1.14c-.66-.35-2-.24-.74-1.16a40,40,0,0,1-5.22,1.92,7.47,7.47,0,0,0-3.85,2.41c-.71-.28.56-1.14,0-1.24-.29.26-1.13,1-1.71.94s.42-.7,1-1.22a11.35,11.35,0,0,0-2.41,1.47,4.19,4.19,0,0,0-1.08,1.44,3.68,3.68,0,0,0,0,2.52,7.18,7.18,0,0,0-2.74.87,5.14,5.14,0,0,0-1.6,1.94c-1,0-2.42.17,0-1.44l-2,1-1.44.75q-.73.43-1.47.9c-1.93,1.23-3.63,2.5-3.31,3.1-.59,0-1.88,1.24-2.13,1.61-1.49,1-2.31,1.56-3.08,2.17s-1.52,1.2-2.86,2.36l.89-.46c-.12,2-2,2.15-4,4.19l0-.17a16.26,16.26,0,0,0-2.69,2,6.06,6.06,0,0,0-.9,1,5.7,5.7,0,0,1-.92,1c-.25.22-.58.47-1,.79s-.94.74-1.6,1.23l.94.39c.55.93-.62,1.75-2.19,2.78s-3.41,2.4-4.29,4.09l1.28-.7c-.39,1-1.78,1.69-3.3,2.35s-3.18,1.27-3.85,2.09c-.4.28.16-.78.43-1.37-4.1,3.87.62,1.31-1.4,4.84-1,.27-.93-1.77-2.53.5-.58.45-1.17,2.47-1.94,4.67a26.32,26.32,0,0,1-1.23,3.35,12.44,12.44,0,0,1-.82,1.49,7,7,0,0,1-.94,1.23c.83-.52,1.64-1,1.18.86-.5,1.34-1.86,2.85-2.85,4.52s-1.91,3.35-1.55,4.88c-.26.29-.43.38-.56.35-.16,1.12-.66,2.84-.92,4.52a11.33,11.33,0,0,0-.21,4c-1,.25-1.51,1.25-1.92,2.57a20.57,20.57,0,0,0-.69,4.57,39.88,39.88,0,0,1-.4,4.19c-.19,1.09-.56,1.76-1.31,1.63-.14,1.12-.32,2.24-.42,3.37l-.28,3.38-.29-.21a14.51,14.51,0,0,0-.08,4.77A10.12,10.12,0,0,0,69.9,177c-.22,1-.5.25-.65.16a26.79,26.79,0,0,0-.28,6.51,22.69,22.69,0,0,0,1.63,5.64l-.95.63a5.46,5.46,0,0,1,.2,2.12c0,1,0,2.32,0,3.78,0,.72,0,1.49.09,2.27s.19,1.58.32,2.38a17.86,17.86,0,0,0,1.3,4.67c-.13,0-.34-.12-.59-.57,1.32,3.29,1.72,7.5,2.53,11.1s1.9,6.55,4,7.05c.81,1.33,1.78,2.58,2.66,3.85-2.18-5.48,1.79.15,1.34-2.29a8.94,8.94,0,0,1,1,3.35c.09.89-.17,1.25-.86,0l0-.48c-2.22-.1,2.68,6.83,1.54,7.26q4.29,7.67,9.21,14.7l2.52,3.44c.87,1.12,1.78,2.2,2.67,3.29S99.44,258,100.4,259s1.88,2.06,2.91,3c0-.65,0-1.27.09-1.93.89.91,1.83,1.77,2.74,2.65.51.93.23,1.77-1.75-.13.5,1.6,3.86,2.59,4.14,2.35,3.75,3.87-2.71,0-1.48,1l1.81,1.36-.28-.46c.89.35,1.46.43,2.13.69a11.8,11.8,0,0,1,2.71,1.69c1.49,1.48.32,1.36,1,1.9-.07.08.12.29,1,.79,1.3,1,2.64,1.89,4,2.83l-1-2c2.08.73,3.73,2.55,2.59.24.81,1.71,4.55,4.25,8.4,6.24,1.91,1,3.89,1.84,5.42,2.59a20.61,20.61,0,0,1,3.15,1.54,20.5,20.5,0,0,1,2.26.42c.74.16,1.49.34,2.23.56,1.5.45,3,1.07,4.76,1.62-.8-.5-.9-1.89,2-.83-.92,1.1.34,1.86,2.14,2.52s4,1.39,5.11,2.55c-1-.85,1.24-.48,3.31-.2s4,.28,2.39-.87c2.55.62,0,1,1.87,1.95,1.59,0,3.24.1,4.94.28.85.09,1.72.23,2.6.34l2.68.33c.91.11,1.83.26,2.76.34l2.83.21a36.28,36.28,0,0,0,5.8-.06c.1-.36-1.21-.85.42-1.43,1.39.56,2.79,1,4.21,1.47.76-.15,1.07-.69,1.55-1.06s1.11-.59,2.58-.18c-.43-.24-1.07-.61-.07-.86,7.63-.08,15.23-2.18,22.51-4.87s14.31-5.94,21.81-8.58c-2.17.48-1-.29.38-1.11-1,.38-.43-.76-.86-1.06,2-.79,4.09-1.56,6.12-2.43.1-.89,1.48-1.91,2.82-2.9s2.55-2.05,2.43-2.73l-1.44,1.45c.59-1.44-.66-1.48-2.14-1.45s-3.25.11-3.66-.78a3.78,3.78,0,0,1-1.8,1.75,22.8,22.8,0,0,1-2.89,1.08c-2.05.75-4.29,1.5-5.73,3.74-1.09.18.46-1-.24-1.09-.6,1.34-1.84,2.13-4.38,3l.18-.32a38.79,38.79,0,0,1-4.5,2.1,35.31,35.31,0,0,1-4,1.38c-1.34.4-2.71.8-4.27,1.14s-3.26.82-5.31,1.23l.86.74a9.67,9.67,0,0,1-3.08.19c-1.62,2,4.88-1.31,3.51.73a6.13,6.13,0,0,0-3.15,0c-1.32.24-2.86.54-4.36.89a25.65,25.65,0,0,1-4.25.62c-1.24.06-2.21,0-2.69-.55-2.73.35,1,1-1.78,1.33l-.8-.49-.6.85c-1.82.13-2.81-.61-2.92-1.08a10.33,10.33,0,0,0,1.68-.32,12.65,12.65,0,0,0-4.25.18,14.45,14.45,0,0,1-3.09.33c.88.09,1.77.19,2.65.26-1.86.21-3.84.37-5.87.41s-4.11,0-6.18-.13l-3.09-.15c-1-.08-2-.16-3-.21-2-.07-3.94-.25-5.8-.22l.48.53c-.71,0-1.31,0-1.83-.07s-1-.14-1.34-.22a11.22,11.22,0,0,1-1.88-.55,29.73,29.73,0,0,0-5.33-1.51l.25,0a11.17,11.17,0,0,1-4.56-.69c1.64,0-2.47-1.82-.35-1.78-3-.51-3.75-.67-4.31-.56a10,10,0,0,1-3.1.4l-.58-1.05a12,12,0,0,1-1.83.09,8.92,8.92,0,0,1-2.87-.81c2.56.52-1.31-1.87,1.6-1.42a15,15,0,0,0-3.63-2.24,31.21,31.21,0,0,0-3.08-1.21c-1.89-.61-3.31-1.23-3.95-3-1.8.12-.76,1.08.54,2s2.89,1.57,2,1.38c.46.62-.27.67-1.33.41a11.09,11.09,0,0,1-3.23-1.55c-.89-.56-1.31-1.57-2-2.83a11,11,0,0,0-1.39-2,10.59,10.59,0,0,0-1.06-1.06,13.81,13.81,0,0,0-1.36-1.13c.41.31.53.21.93.52a7.14,7.14,0,0,0-2.35-1.69,10.34,10.34,0,0,1-1.31-.84,5.16,5.16,0,0,1-1.11-1.31c-1.81.11-2.31-2-3.64-1l3.91,2.76c-1.17-.7-2.54-1.1-4-1.78a11.14,11.14,0,0,1-4.25-3.58,9.2,9.2,0,0,1,2.58,1c-.63-1.24-2.09-1.44-2.7-2.76.67-.41,1.78.51,3.1,1.65.66.58,1.36,1.22,2.09,1.77a8.56,8.56,0,0,0,2.27,1.19c-.31-.71-1.56-1.32-2.4-1.88s-1.33-1-.23-1.13c-1.49.12-2.38-.8-3.36-1.86a8.53,8.53,0,0,0-3.74-3.08l.85-.49a7.67,7.67,0,0,1-2.24-1.6l2.12.54c-2.64-1.4-2.93-4.59-5-6.33,1.75,2.17,1.74,2.59,1.4,2.77s-1,.1-.5,1.22C96,243.91,100.7,244,95.85,238c.69.78,1.83,3.51.51,2.44a18.32,18.32,0,0,1-1-2.18,7.67,7.67,0,0,1-.52-2c-3-4.17-.39,1.19-2.08-.33,0-2.07-1.71-1.91-3.2-3.7l.83-.49a12.18,12.18,0,0,0-.81-1.57,4.28,4.28,0,0,0-.59-.87,1.35,1.35,0,0,0-1-.45c-.58-.05-1.11-.06-2-2.61l2.22,1.4c-.51-.77-1.07-1.52-1.55-2.31l1.23,0a12.83,12.83,0,0,1-2-2.9,17.39,17.39,0,0,1-1.08-3.24c-.38.89-1.76.31-2.76-2.14-.09-1.88,1.17.63-.16-2.84a2.8,2.8,0,0,1,1.57,3c.36,0,.87.55,1.22.59-.13-2-1.47-4.53-1.92-5.78a5.31,5.31,0,0,1,.25,1.43c-.49-.77-1-1.54-1.49-2.32l-1.37-2.39c.11-.91.58-.34,1,.21a21.6,21.6,0,0,1-1.52-3.14c.86.21,1.59-.07,2.56,2-.77-1.52-1.4-3.09-2.07-4.67.24-.4.35-2.71.77-2.14a15.4,15.4,0,0,0-1.37-4.74,14.38,14.38,0,0,1-1.1-5.52,2.89,2.89,0,0,1-.52-1.32c0-.88,0-1.73,0-2.58s.13-1.7.17-2.56a24.17,24.17,0,0,0-.06-2.67,15.54,15.54,0,0,0-.44-2.93c.49-.77.93-1.54,1.46-2.29-.13-3.24-2,3.11-2.17-2.33-.21-3.89,1.27-1.34,1.78-2.65a23.1,23.1,0,0,1-.79-3.86,9.24,9.24,0,0,1,.93-4.9A21.11,21.11,0,0,1,78.57,165.84Zm12.63-37.9c-.12.38-.24,1-.43,1.52s-.4,1-.79,1.13C89.43,129.26,90.22,128.9,91.2,127.94Zm43.48-43a3.63,3.63,0,0,1-2.37,1A6.58,6.58,0,0,1,134.68,85Zm150.85,54.79a.23.23,0,0,0-.07-.07C285.11,137.78,285.22,138.46,285.53,139.75Zm1,3.83c.25.33.37.26.44,0a4.09,4.09,0,0,1-.88-2C285.92,142,285.92,142.54,286.5,143.58ZM114.92,271.13l-.46-.66C116,271.27,115.47,271.19,114.92,271.13Z" transform="translate(-68.86 -68.63)"/><path class="cls-1" d="M129,89.41a.85.85,0,0,1-.55-.28C128.3,89.43,128.39,89.59,129,89.41Z" transform="translate(-68.86 -68.63)"/><path class="cls-1" d="M78.52,190.65v.12a.4.4,0,0,0,.18.11Z" transform="translate(-68.86 -68.63)"/><path class="cls-1" d="M247.09,100.55a4,4,0,0,1-.8-1.3C246.11,99.4,246.25,99.78,247.09,100.55Z" transform="translate(-68.86 -68.63)"/><path class="cls-1" d="M293.1,163.47c-.17-.83-.43-1.65-.66-2.47a5.39,5.39,0,0,1,.07,2.31C292.72,163.22,293,162.69,293.1,163.47Z" transform="translate(-68.86 -68.63)"/><path class="cls-1" d="M288.29,185.25c.1.36,0,.75.07,1.11l.45-.08C288.87,184.77,288.57,183.71,288.29,185.25Z" transform="translate(-68.86 -68.63)"/><path class="cls-1" d="M290.24,166.22c-.81.3-.25,1.79,0,3.5a3,3,0,0,1,0-.31c.58.2.74-.15.69-.78A13,13,0,0,0,290.24,166.22Z" transform="translate(-68.86 -68.63)"/><path class="cls-1" d="M290.31,170.12a10.58,10.58,0,0,1,.16,1.59C290.94,171.87,290.51,171.05,290.31,170.12Z" transform="translate(-68.86 -68.63)"/><path class="cls-1" d="M288.55,148.15c0,.87,1.14.22.95.77.63.31-.06-1-.68-1.76-.3-.4-.61-.68-.71-.6S288.11,147.09,288.55,148.15Z" transform="translate(-68.86 -68.63)"/><polygon class="cls-1" points="218.91 99.29 219.82 98.56 218.89 97.72 218.91 99.29"/><path class="cls-1" d="M286.11,154.6l.35,2.71c.15-.07.33.24.5.64C286.61,156.31,286.38,154.47,286.11,154.6Z" transform="translate(-68.86 -68.63)"/><path class="cls-1" d="M287,158a7.91,7.91,0,0,0,.57,2.13A14,14,0,0,0,287,158Z" transform="translate(-68.86 -68.63)"/><path class="cls-1" d="M287,164.3l.1-.82-.28-1.89C286.86,162.5,287,163.39,287,164.3Z" transform="translate(-68.86 -68.63)"/><path class="cls-1" d="M275.59,127.36l-1.74-2.43c-.45-.09-.22.72.45,1.6C274.86,127,275.53,127.91,275.59,127.36Z" transform="translate(-68.86 -68.63)"/><path class="cls-1" d="M277.15,136.53a2.82,2.82,0,0,1,.16-1.49l-1.16.45Z" transform="translate(-68.86 -68.63)"/><path class="cls-1" d="M273.1,129.11c-.45-.09-3-3.12-1.06,0C272.5,129.17,274.15,131.56,273.1,129.11Z" transform="translate(-68.86 -68.63)"/><polygon class="cls-1" points="176.87 26.46 177.48 26.9 178.64 25.22 176.87 26.46"/><path class="cls-1" d="M209.78,82.18c3,1.45,1.13-1,3.82.52.91-.23-2.2-1.23-1.3-1.38C210.2,81.21,209.27,80.63,209.78,82.18Z" transform="translate(-68.86 -68.63)"/><path class="cls-1" d="M212.3,81.32c.33,0,.69,0,1.09,0A4.43,4.43,0,0,0,212.3,81.32Z" transform="translate(-68.86 -68.63)"/><path class="cls-1" d="M248.38,270.7c.73-.34,1.41-.74,2.12-1.11l-1.61.41C248.73,270.24,248.55,270.46,248.38,270.7Z" transform="translate(-68.86 -68.63)"/><path class="cls-1" d="M251,266.73l1.25.66.34-1.78C252.18,266,251.46,266.7,251,266.73Z" transform="translate(-68.86 -68.63)"/><path class="cls-1" d="M96.56,124.32l-.17-.31c-.46.09-.76.48-1.36,1.28Z" transform="translate(-68.86 -68.63)"/><polygon class="cls-1" points="14.46 81 14.63 80.54 13.24 81.07 14.46 81"/><path class="cls-1" d="M80.29,173.44c.08-1-.05-2.13.11-3.1C80.35,172.46,78.83,173.6,80.29,173.44Z" transform="translate(-68.86 -68.63)"/></svg>